<svg width="421" height="407" viewBox="0 0 421 407" fill="none" xmlns="http://www.w3.org/2000/svg">
<path opacity="0.24" d="M403.05 266.25C390.98 283.56 374.05 296.88 360.66 313.25C341 337.25 328.28 368.41 301.66 384.42C289.07 391.98 274.5 395.36 260.22 398.64C237.27 403.92 213.49 409.2 190.36 404.74C172.63 401.33 156.54 392.39 140.78 383.57L128.31 376.57C125.56 375.01 122.78 373.48 120 371.92L111.9 367.38C88.12 353.98 64.49 340 44.45 321.53C22.12 301.03 4.37004 274.05 0.68004 243.92C-3.59996 209.1 12.78 172.53 41.6 152.52C57.41 141.52 76.26 135.4 91.79 123.99C116.3 105.99 129.79 77.2 146.62 51.91C177.81 5.02 237.79 -17.42 288.3 15.91C307.93 28.85 322.78 48.07 333.69 68.91C342.91 86.48 349.69 105.54 361.95 121.14C375.95 138.96 396.33 151.3 408.58 170.37C426.93 198.91 422.49 238.39 403.05 266.25Z" fill="#818CF8"/>
<path opacity="0.42" d="M143.98 372.95C142.51 374.56 144.92 376.8 146.98 377.58C160.421 382.723 174.689 385.367 189.08 385.38L186.63 389.55C209.187 395.814 233.008 395.938 255.63 389.91L252.15 384.51L272.36 383.51C275.57 383.36 286.83 384.68 288.96 381.83C295.09 373.62 270.14 373.3 267.46 373.19C240.84 372.077 214.203 371.647 187.55 371.9C180.283 371.967 173.017 372.083 165.75 372.25C162.31 372.37 146.12 370.67 143.98 372.95Z" fill="#818CF8"/>
<path d="M257.6 298.96C257.06 309.627 256.417 320.313 255.67 331.02C255.448 336.432 254.745 341.813 253.57 347.1C252.781 350.243 251.669 353.296 250.25 356.21C249.64 357.46 248.77 358.82 247.4 358.96C245.67 359.14 244.47 357.29 243.85 355.66C240.76 347.66 240.76 338.9 240.56 330.34C240.447 325.913 240.27 321.483 240.03 317.05C239.74 311.7 239.16 305.91 235.54 301.95C234.44 300.75 233.1 299.77 232.02 298.54C227.61 293.54 228.93 285.11 233.68 280.4C237.37 276.75 248.08 271.93 253.25 274.95C259.39 278.53 257.89 293.19 257.6 298.96Z" fill="#606161"/>
<path d="M226.64 280.65C228.186 283.1 228.911 285.98 228.71 288.87C228.46 297.56 223.3 305.25 220.71 313.56C216.83 326.11 218.99 339.56 219.38 352.73C219.561 354.544 219.335 356.374 218.72 358.09C218.393 358.941 217.816 359.672 217.064 360.186C216.312 360.7 215.421 360.974 214.51 360.97C213.19 360.725 212.002 360.015 211.16 358.97C204.8 352.17 205.01 341.8 203.96 332.56C202.78 322.27 199.59 312.33 196.87 302.34C195.64 297.83 194.49 293.21 194.78 288.55C195.07 283.89 197.03 279.1 200.88 276.46C207.87 271.68 221.65 273.5 226.64 280.65Z" fill="#606161"/>
<path opacity="0.52" d="M61.0399 186.95L170.3 186.95C177.005 186.95 182.44 181.515 182.44 174.81L182.44 51.85C182.44 45.1453 177.005 39.71 170.3 39.71L61.0399 39.71C54.3352 39.71 48.8999 45.1453 48.8999 51.85L48.8999 174.81C48.8999 181.515 54.3352 186.95 61.0399 186.95Z" fill="#818CF8"/>
<path opacity="0.52" d="M271.09 158.55L396.37 158.55C402.754 158.55 407.93 153.374 407.93 146.99V79.1C407.93 72.7156 402.754 67.54 396.37 67.54L271.09 67.54C264.706 67.54 259.53 72.7156 259.53 79.1V146.99C259.53 153.374 264.706 158.55 271.09 158.55Z" fill="#818CF8"/>
<path opacity="0.52" d="M232.78 92.07L311.49 92.07C315.5 92.07 318.75 88.8196 318.75 84.81V42.15C318.75 38.1404 315.5 34.89 311.49 34.89L232.78 34.89C228.77 34.89 225.52 38.1404 225.52 42.15V84.81C225.52 88.8196 228.77 92.07 232.78 92.07Z" fill="#818CF8"/>
<path opacity="0.52" d="M107.47 266.18H333.16V255.36L107.47 255.36V266.18Z" fill="#818CF8"/>
<path d="M151.52 241.44L299.15 241.44C306.087 241.44 311.71 235.817 311.71 228.88V126.47C311.71 119.533 306.087 113.91 299.15 113.91L151.52 113.91C144.583 113.91 138.96 119.533 138.96 126.47V228.88C138.96 235.817 144.583 241.44 151.52 241.44Z" fill="#818CF8"/>
<g opacity="0.52">
<path d="M254.49 42.71H237.35V43.97H254.49V42.71Z" fill="#818CF8"/>
<path d="M247.81 45.15H237.35V46.33H247.81V45.15Z" fill="#818CF8"/>
<path d="M284.95 45.15H252.03V46.34H284.95V45.15Z" fill="#818CF8"/>
<path d="M306.55 45.15H288.02V46.34H306.55V45.15Z" fill="#818CF8"/>
<path d="M257.17 47.58H242.79V48.82H257.17V47.58Z" fill="#818CF8"/>
<path d="M264.55 50.02H247.41V51.28H264.55V50.02Z" fill="#818CF8"/>
<path d="M280.02 50.02H265.66V51.42H280.02V50.02Z" fill="#818CF8"/>
<path d="M260.61 52.45H247.38V53.63H260.61V52.45Z" fill="#818CF8"/>
<path d="M289.2 52.45H261.89V53.76H289.2V52.45Z" fill="#818CF8"/>
<path d="M254.49 55.74H237.35V57H254.49V55.74Z" fill="#818CF8"/>
<path d="M247.81 58.17H237.35V59.35H247.81V58.17Z" fill="#818CF8"/>
<path d="M284.95 58.17H252.03V59.36H284.95V58.17Z" fill="#818CF8"/>
<path d="M306.55 58.17H288.02V59.36H306.55V58.17Z" fill="#818CF8"/>
<path d="M257.17 60.6H242.79V61.84H257.17V60.6Z" fill="#818CF8"/>
<path d="M264.55 63.04H247.41V64.3H264.55V63.04Z" fill="#818CF8"/>
<path d="M280.02 63.04H265.66V64.44H280.02V63.04Z" fill="#818CF8"/>
<path d="M260.61 65.47H247.38V66.65H260.61V65.47Z" fill="#818CF8"/>
<path d="M289.2 65.47H261.89V66.78H289.2V65.47Z" fill="#818CF8"/>
<path d="M254.49 68.76H237.35V70.02H254.49V68.76Z" fill="#818CF8"/>
<path d="M247.81 71.2H237.35V72.38H247.81V71.2Z" fill="#818CF8"/>
<path d="M284.95 71.2H252.03V72.39H284.95V71.2Z" fill="#818CF8"/>
<path d="M306.55 71.2H288.02V72.39H306.55V71.2Z" fill="#818CF8"/>
<path d="M257.17 73.63H242.79V74.87H257.17V73.63Z" fill="#818CF8"/>
<path d="M264.55 76.06H247.41V77.32H264.55V76.06Z" fill="#818CF8"/>
<path d="M280.02 76.06H265.66V77.46H280.02V76.06Z" fill="#818CF8"/>
<path d="M260.61 78.5H247.38V79.68H260.61V78.5Z" fill="#818CF8"/>
<path d="M289.2 78.5H261.89V79.81H289.2V78.5Z" fill="#818CF8"/>
</g>
<path d="M242.73 158.79C243.507 160.967 243.781 163.292 243.53 165.59C243.307 170.896 242.753 176.183 241.87 181.42C241.21 185.35 240.17 189.57 237.06 192.05C236.171 192.648 235.331 193.317 234.55 194.05C234.01 194.63 233.63 195.35 233.13 195.98C230.6 199.15 225.5 199.15 222.02 197.04C218.54 194.93 216.31 191.31 214.27 187.79C212.02 183.91 209.79 179.85 209.39 175.38C209.06 171.84 209.89 168.11 208.54 164.82C207.54 162.4 205.47 160.46 205.01 157.89C204.832 156.158 205.044 154.409 205.63 152.77C206.44 149.86 207.68 146.5 210.63 145.71C212.78 145.13 215 146.23 217.23 146.3C220.07 146.4 222.96 144.81 225.66 145.71C229.13 146.87 230.66 150.87 234.12 152.17C237.58 153.47 241.12 155.11 242.73 158.79Z" fill="#606161"/>
<path d="M254.21 210.04C244.07 201.63 229.44 201.84 216.39 203.62C211 204.35 205.51 205.32 200.77 208C192.83 212.5 188.13 221.2 185.66 230C184.35 234.67 183.66 240 186.28 244.1C189.03 248.34 194.51 249.8 199.53 250.36C200.299 250.377 201.05 250.594 201.71 250.99C202.401 251.631 202.835 252.502 202.93 253.44C204.33 260.74 201.49 268.94 205.24 275.35C208.87 281.54 216.98 283.17 224.13 283.72C233.38 284.43 243.41 284.17 250.92 278.72C252.166 277.883 253.225 276.797 254.03 275.53C255.27 273.41 255.34 270.83 255.37 268.38C255.45 263.04 253.5 252.3 256.1 247.59C258.28 243.67 264.49 243.65 266.67 239.17C270.8 230.65 260.42 215.18 254.21 210.04Z" fill="white"/>
<path d="M238.04 226.42H214.24C204.967 226.42 197.45 233.937 197.45 243.21V250.3C197.45 259.573 204.967 267.09 214.24 267.09H238.04C247.313 267.09 254.83 259.573 254.83 250.3V243.21C254.83 233.937 247.313 226.42 238.04 226.42Z" fill="#818CF8"/>
<path d="M238.04 230.16H214.24C204.967 230.16 197.45 237.677 197.45 246.95V254.04C197.45 263.313 204.967 270.83 214.24 270.83H238.04C247.313 270.83 254.83 263.313 254.83 254.04V246.95C254.83 237.677 247.313 230.16 238.04 230.16Z" fill="#818CF8"/>
<path d="M225.18 311.01H225.19C227.349 311.01 229.1 309.259 229.1 307.1V250.28C229.1 248.121 227.349 246.37 225.19 246.37H225.18C223.021 246.37 221.27 248.121 221.27 250.28V307.1C221.27 309.259 223.021 311.01 225.18 311.01Z" fill="white"/>
<path d="M249.27 356.05C251.27 357.7 251.77 360.56 252.65 363.05C253.87 366.45 256.13 369.54 256.43 373.14C256.561 374.207 256.384 375.29 255.92 376.26C255.473 377.01 254.837 377.631 254.075 378.059C253.314 378.487 252.453 378.708 251.58 378.7C249.83 378.664 248.124 378.145 246.65 377.2C244.044 375.648 241.892 373.437 240.41 370.79C239.654 369.495 239.171 368.059 238.99 366.57C238.58 362.06 243.26 351.25 249.27 356.05Z" fill="#818CF8"/>
<path d="M253 375.13C253.141 375.393 253.215 375.687 253.215 375.985C253.215 376.283 253.141 376.577 253 376.84C252.769 377.087 252.463 377.253 252.13 377.31C250.752 377.576 249.325 377.316 248.13 376.58C246.951 375.857 245.869 374.987 244.91 373.99C243.426 372.687 242.112 371.202 241 369.57C239.886 367.911 239.433 365.896 239.73 363.92C240.79 358.5 245.57 363.36 247.33 365.36C249.842 368.214 251.769 371.533 253 375.13Z" fill="#606161"/>
<path d="M210.12 356.16C208.12 357.81 207.62 360.67 206.74 363.16C205.52 366.56 203.26 369.66 202.96 373.25C202.829 374.321 203.006 375.406 203.47 376.38C203.918 377.129 204.555 377.747 205.316 378.173C206.078 378.599 206.937 378.819 207.81 378.81C209.561 378.779 211.268 378.259 212.74 377.31C215.349 375.761 217.501 373.549 218.98 370.9C219.738 369.606 220.221 368.169 220.4 366.68C220.8 362.17 216.12 351.32 210.12 356.16Z" fill="#818CF8"/>
<path d="M205.88 375.52C205.742 375.784 205.669 376.077 205.669 376.375C205.669 376.673 205.742 376.966 205.88 377.23C206.115 377.478 206.424 377.643 206.76 377.7C208.138 377.956 209.561 377.696 210.76 376.97C211.933 376.243 213.012 375.373 213.97 374.38C215.46 373.076 216.777 371.588 217.89 369.95C219.002 368.294 219.455 366.283 219.16 364.31C218.09 358.88 213.32 363.74 211.55 365.75C209.04 368.605 207.114 371.924 205.88 375.52Z" fill="#606161"/>
<path d="M231.55 332.25C229.939 333.015 228.16 333.359 226.38 333.25C224.41 333.363 222.433 333.219 220.5 332.82C219.848 332.691 219.238 332.406 218.72 331.99C218.288 331.594 217.947 331.11 217.72 330.57C216.09 326.97 214.25 319.51 216.78 316.48C219.67 313 231.14 312.39 234.78 316.04C238.31 319.46 235.75 329.78 231.55 332.25Z" fill="#818CF8"/>
<path d="M223.59 366.08H228.81V332.4H223.59V366.08Z" fill="white"/>
<path d="M246.84 368.88C248 369.83 249.13 371.02 250.62 371.2C251.7 371.32 252.78 370.86 253.88 370.86C255.328 370.962 256.692 371.575 257.73 372.59C258.71 373.366 259.446 374.407 259.85 375.59C260.66 378.35 258.2 381.37 255.33 381.65C252.46 381.93 249.7 379.97 248.44 377.39C248.169 376.683 247.813 376.012 247.38 375.39C246.965 374.944 246.482 374.566 245.95 374.27C241.703 371.636 237.019 369.784 232.12 368.8C231.27 368.63 230.23 368.55 229.69 369.22C229.428 369.604 229.286 370.056 229.28 370.52C229.059 372.512 228.968 374.516 229.01 376.52C228.984 376.905 229.056 377.291 229.22 377.64C229.48 378 229.797 378.314 230.16 378.57C230.738 379.185 231.101 379.97 231.195 380.808C231.289 381.647 231.108 382.493 230.68 383.22C229.775 384.654 228.389 385.717 226.77 386.22C224.85 386.93 222.43 387.05 221 385.58C220.495 385.012 220.158 384.315 220.025 383.566C219.893 382.818 219.971 382.047 220.25 381.34C220.826 379.928 221.891 378.771 223.25 378.08C223.722 377.901 224.132 377.588 224.43 377.18C224.595 376.803 224.658 376.389 224.61 375.98L224.47 371.52C224.512 371.18 224.473 370.834 224.355 370.512C224.236 370.191 224.043 369.902 223.79 369.67C223.39 369.462 222.932 369.395 222.49 369.48C215.14 370.047 208.102 372.686 202.19 377.09C203.27 377.93 203.08 379.75 202.11 380.71C201.042 381.591 199.669 382.015 198.29 381.89C196.774 381.906 195.288 381.471 194.02 380.64C193.385 380.225 192.868 379.654 192.518 378.982C192.167 378.309 191.996 377.558 192.02 376.8C192.122 376.032 192.422 375.304 192.89 374.687C193.358 374.07 193.978 373.585 194.69 373.28C196.121 372.681 197.694 372.511 199.22 372.79C200.005 372.957 200.808 373.021 201.61 372.98C202.509 372.793 203.364 372.437 204.13 371.93C211.056 368.019 218.737 365.633 226.66 364.93C233.3 364.34 241.47 364.48 246.84 368.88Z" fill="white"/>
<path d="M310.34 234.25H373.51C379.596 234.25 384.53 229.316 384.53 223.23V182.08C384.53 175.994 379.596 171.06 373.51 171.06H310.34C304.254 171.06 299.32 175.994 299.32 182.08V223.23C299.32 229.316 304.254 234.25 310.34 234.25Z" fill="white"/>
<path d="M63.19 239.48H139.82C145.713 239.48 150.49 234.703 150.49 228.81V214.21C150.49 208.317 145.713 203.54 139.82 203.54H63.19C57.2971 203.54 52.52 208.317 52.52 214.21V228.81C52.52 234.703 57.2971 239.48 63.19 239.48Z" fill="white"/>
<path d="M69.74 81L94.67 68.16V71.88L73.67 82.35V82.47L94.67 92.99V96.71L69.74 83.87V81Z" fill="#818CF8"/>
<path d="M98.12 98.91L113.12 59.91H116.77L101.77 98.91H98.12Z" fill="#818CF8"/>
<path d="M145.12 84.06L120.18 96.85V93.04L141.34 82.52V82.35L120.18 71.83V68.16L145.12 80.95V84.06Z" fill="#818CF8"/>
<path d="M194.98 319.9H253.35C260.281 319.9 265.9 314.281 265.9 307.35V306.56C265.9 299.629 260.281 294.01 253.35 294.01H194.98C188.049 294.01 182.43 299.629 182.43 306.56V307.35C182.43 314.281 188.049 319.9 194.98 319.9Z" fill="#818CF8"/>
<g opacity="0.52">
<path d="M331.58 187.41H308.78V189.08H331.58V187.41Z" fill="#818CF8"/>
<path d="M322.7 190.64H308.78V192.21H322.7V190.64Z" fill="#818CF8"/>
<path d="M372.1 190.64H328.31V192.22H372.1V190.64Z" fill="#818CF8"/>
<path d="M335.16 193.89H316.02V195.55H335.16V193.89Z" fill="#818CF8"/>
<path d="M344.96 197.12H322.16V198.79H344.96V197.12Z" fill="#818CF8"/>
<path d="M365.55 197.12H346.44V198.98H365.55V197.12Z" fill="#818CF8"/>
<path d="M339.73 200.36H322.12V201.93H339.73V200.36Z" fill="#818CF8"/>
<path d="M377.75 200.36H341.42V202.1H377.75V200.36Z" fill="#818CF8"/>
<path d="M331.58 204.74H308.78V206.41H331.58V204.74Z" fill="#818CF8"/>
<path d="M322.7 207.97H308.78V209.54H322.7V207.97Z" fill="#818CF8"/>
<path d="M372.1 207.97H328.31V209.55H372.1V207.97Z" fill="#818CF8"/>
<path d="M335.16 211.21H316.02V212.87H335.16V211.21Z" fill="#818CF8"/>
<path d="M344.96 214.45H322.16V216.12H344.96V214.45Z" fill="#818CF8"/>
<path d="M365.55 214.45H346.44V216.31H365.55V214.45Z" fill="#818CF8"/>
<path d="M339.73 217.69H322.12V219.26H339.73V217.69Z" fill="#818CF8"/>
<path d="M377.75 217.69H341.42V219.43H377.75V217.69Z" fill="#818CF8"/>
</g>
<g opacity="0.52">
<path d="M90.44 211.46H67.64V213.13H90.44V211.46Z" fill="#818CF8"/>
<path d="M81.56 214.7H67.64V216.27H81.56V214.7Z" fill="#818CF8"/>
<path d="M130.96 214.7H87.17V216.28H130.96V214.7Z" fill="#818CF8"/>
<path d="M94.02 217.94H74.88V219.6H94.02V217.94Z" fill="#818CF8"/>
<path d="M103.82 221.18H81.02V222.85H103.82V221.18Z" fill="#818CF8"/>
<path d="M124.42 221.18H105.31V223.04H124.42V221.18Z" fill="#818CF8"/>
<path d="M98.6 224.41H80.99V225.98H98.6V224.41Z" fill="#818CF8"/>
<path d="M136.61 224.41H100.28V226.15H136.61V224.41Z" fill="#818CF8"/>
<path d="M90.44 228.79H67.64V230.46H90.44V228.79Z" fill="#818CF8"/>
<path d="M81.56 232.03H67.64V233.6H81.56V232.03Z" fill="#818CF8"/>
<path d="M130.96 232.03H87.17V233.61H130.96V232.03Z" fill="#818CF8"/>
</g>
<path d="M112.42 327.1C109.11 320.56 105.06 313.77 105.84 306.48C106.31 302.07 108.54 298.07 110.72 294.2L120.54 276.79C123.54 280.69 128.48 283.06 130.46 287.56C133.64 294.79 127.46 302.79 127.79 310.68C128.01 316.75 132.04 322.28 131.79 328.35C131.63 332.76 124.65 347.21 119 346.66C116.01 346.37 114.3 330.8 112.42 327.1Z" fill="#818CF8"/>
<path d="M146.23 324.31C148.46 324.31 151.23 324.76 151.87 326.91C152.39 328.79 150.74 330.52 149.17 331.68C143.7 335.68 136.85 338.75 134.17 344.98C129.72 355.32 117.12 348.69 123.64 339.74C126.34 336.04 128.64 331.07 132 327.98C135.86 324.41 141.26 324.25 146.23 324.31Z" fill="#818CF8"/>
<path d="M113.56 329.09C111.05 326.23 107.32 324.82 103.76 323.5C102.07 322.88 99.8999 322.37 98.7599 323.73C98.3841 324.261 98.1823 324.895 98.1823 325.545C98.1823 326.195 98.3841 326.829 98.7599 327.36C99.5442 328.399 100.501 329.296 101.59 330.01C103.78 331.615 105.576 333.697 106.84 336.1C108.11 338.69 108.45 341.64 109.58 344.3C110.71 346.96 113.07 349.47 115.95 349.35C117.078 349.237 118.148 348.791 119.024 348.07C119.899 347.35 120.542 346.386 120.87 345.3C121.99 341.85 120.5 340.3 118.65 337.86C116.6 335.15 115.85 331.68 113.56 329.09Z" fill="#818CF8"/>
<path d="M135.27 345.07L131.9 376.6H128.33C125.58 375.04 122.8 373.51 120.02 371.95L111.92 367.41L109.05 345.07H135.27Z" fill="#818CF8"/>
<circle cx="35" cy="178" r="33" fill="#E2EEFD"/>
<circle cx="375" cy="281" r="33" fill="#E2EEFD"/>
<circle cx="328" cy="51" r="33" fill="#E2EEFD"/>
<path d="M22.3775 193.001L19.5687 161.5H50.4312L47.6187 192.996L34.9812 196.5L22.3775 193.001Z" fill="#E44F26"/>
<path d="M35 193.823L45.2125 190.991L47.615 164.076H35V193.823Z" fill="#F1662A"/>
<path d="M35 175.759H29.8875L29.535 171.803H35V167.939H34.9863H25.3125L25.405 168.976L26.3538 179.623H35V175.759Z" fill="#EBEBEB"/>
<path d="M35 185.792L34.9825 185.797L30.68 184.636L30.405 181.555H28.3137H26.5262L27.0675 187.62L34.9825 189.817L35 189.812V185.792Z" fill="#EBEBEB"/>
<path d="M34.9862 175.759V179.623H39.7437L39.2962 184.634L34.9862 185.796V189.816L42.9075 187.62L42.965 186.968L43.8725 176.796L43.9675 175.759H42.9262H34.9862Z" fill="white"/>
<path d="M34.9862 167.939V170.339V171.794V171.803H44.3062H44.3187L44.3962 170.935L44.5725 168.976L44.665 167.939H34.9862Z" fill="white"/>
<path d="M369.484 291.879C369.484 291.879 367.958 292.766 370.57 293.066C373.734 293.427 375.351 293.376 378.838 292.716C378.838 292.716 379.755 293.29 381.035 293.788C373.218 297.138 363.345 293.594 369.484 291.879Z" fill="#5382A1"/>
<path d="M368.529 287.507C368.529 287.507 366.818 288.774 369.431 289.044C372.811 289.393 375.48 289.422 380.099 288.532C380.099 288.532 380.738 289.18 381.742 289.534C372.292 292.297 361.766 289.752 368.529 287.507Z" fill="#5382A1"/>
<path d="M376.581 280.092C378.507 282.309 376.075 284.304 376.075 284.304C376.075 284.304 380.965 281.78 378.719 278.619C376.622 275.67 375.013 274.206 383.721 269.155C383.721 269.155 370.052 272.569 376.581 280.092Z" fill="#E76F00"/>
<path d="M386.919 295.112C386.919 295.112 388.048 296.043 385.675 296.762C381.163 298.129 366.897 298.542 362.934 296.817C361.509 296.197 364.181 295.337 365.021 295.156C365.898 294.966 366.398 295.002 366.398 295.002C364.814 293.886 356.158 297.193 362.001 298.141C377.938 300.725 391.053 296.977 386.919 295.112Z" fill="#5382A1"/>
<path d="M370.218 282.978C370.218 282.978 362.961 284.701 367.648 285.327C369.627 285.592 373.572 285.532 377.247 285.225C380.25 284.971 383.266 284.433 383.266 284.433C383.266 284.433 382.207 284.886 381.441 285.409C374.071 287.347 359.835 286.446 363.934 284.463C367.4 282.788 370.218 282.978 370.218 282.978Z" fill="#5382A1"/>
<path d="M383.236 290.254C390.727 286.362 387.263 282.621 384.846 283.125C384.253 283.248 383.989 283.355 383.989 283.355C383.989 283.355 384.209 283.01 384.629 282.861C389.412 281.18 393.09 287.821 383.085 290.451C383.085 290.451 383.201 290.347 383.236 290.254Z" fill="#5382A1"/>
<path d="M378.719 261C378.719 261 382.868 265.15 374.784 271.532C368.302 276.651 373.306 279.57 374.782 282.905C370.998 279.491 368.221 276.486 370.084 273.689C372.818 269.583 380.393 267.592 378.719 261Z" fill="#E76F00"/>
<path d="M370.954 300.803C378.145 301.263 389.187 300.547 389.448 297.145C389.448 297.145 388.945 298.435 383.505 299.459C377.368 300.614 369.799 300.479 365.309 299.739C365.309 299.739 366.228 300.5 370.954 300.803Z" fill="#5382A1"/>
<path d="M315.5 66L313 34.75H343L340.5 66L328 69.75L315.5 66Z" fill="#1172B8"/>
<path d="M340.5 37.25H328V67.875L338 64.75L340.5 37.25Z" fill="#33AADD"/>
<path d="M332.375 52.875H319.875L319.25 48.5L329.25 45.375H319.25L318.625 41.625H338L337.375 46L329.25 49.125H336.75L335.5 61L328 63.5L320.5 61L319.875 54.75H323.625L324.25 57.875L328 59.125L331.75 57.875L332.375 52.875Z" fill="white"/>
</svg>
